PathFileType	4	(X/Y/Z)	19_1_40_p0_0-464_filt_butterworth.trc
DataRate	CameraRate	NumFrames	NumMarkers	Units	OrigDataRate	OrigDataStartFrame	OrigNumFrames
57.0	57.0	6	27	m	57.0	0	464
Frame#	Time	RHip			RKnee			RAnkle			RBigToe			RSmallToe			RHeel			LHip			LKnee			LAnkle			LBigToe			LSmallToe			LHeel			Neck			Head			Nose			RShoulder			RElbow			RWrist			RThumb			RIndex			RPinky			LShoulder			LElbow			LWrist			LThumb			LIndex			LPinky			
		X1	Y1	Z1	X2	Y2	Z2	X3	Y3	Z3	X4	Y4	Z4	X5	Y5	Z5	X6	Y6	Z6	X7	Y7	Z7	X8	Y8	Z8	X9	Y9	Z9	X10	Y10	Z10	X11	Y11	Z11	X12	Y12	Z12	X13	Y13	Z13	X14	Y14	Z14	X15	Y15	Z15	X16	Y16	Z16	X17	Y17	Z17	X18	Y18	Z18	X19	Y19	Z19	X20	Y20	Z20	X21	Y21	Z21	X22	Y22	Z22	X23	Y23	Z23	X24	Y24	Z24	X25	Y25	Z25	X26	Y26	Z26	X27	Y27	Z27	
0	0.0	0.30286375779776603	0.5501777187762849	0.8869972803377482	0.28607490312421674	0.5577324085522009	1.3065598909802092	0.2783843177977801	0.6064351178290872	1.7458876642868237	0.27485612214106814	0.37767296741940565	1.7274824150526495	0.3429523002387021	0.3921504897557326	1.7152282412284339	0.2423816857553167	0.6515283592968597	1.7931975577922095	0.07435320560172133	0.5323539275083099	0.8888495255304653	0.08055020194003122	0.5477375264770916	1.29832243005677	0.0698646971055815	0.5489000230605702	1.7087998339394184	0.10754149820266433	0.33279782967018257	1.7053215701057742	0.04624676480378199	0.3925123071144167	1.7411625648856917	0.07904799245532684	0.6104550960429822	1.787262824853815	0.20538528915873247	0.5072571442716112	0.2973689633517749	0.2077506956422725	0.48316021943848314	0.03579372160257192	0.19673264695861162	0.39366908609338713	0.17673278914823318	0.34854780724286266	0.5070123427859753	0.3846074743024753	0.39081352411285486	0.40745834860648944	0.6149385338612966	0.25423204664148386	0.2650977535691685	0.7360885458880336	0.2208507028941965	0.2557382423680001	0.8224863882981737	0.21255850274704405	0.24038209045787579	0.8228929032627121	0.21004159900003744	0.22724206234176791	0.8240955074429169	0.042138759233576475	0.5009812155661764	0.370009360649393	0.02159744981282936	0.43197173921333665	0.6063286548114548	0.14317375312342664	0.2485978016913375	0.7322629373511943	0.2510689122494177	0.25283898172884617	0.7764816897961084	0.2513187573134149	0.25056671864674257	0.8034507822743042	0.20716486000173628	0.19511586534459716	0.8230378184047868
1	0.0175438596491228	0.29914873260762653	0.5587133332818806	0.8925718620762759	0.28609827945009103	0.5577706496280669	1.3067568480439236	0.2783355818039812	0.6030543204525056	1.7413591114107758	0.2757256039599587	0.3812488949197599	1.7302825031483968	0.3438574648659237	0.3948915210796568	1.7172300462516707	0.24557111217591537	0.656920031535614	1.7963323315240318	0.07360561393589357	0.5317816883956302	0.89312370385637	0.08033977029568155	0.5476459927681779	1.2985565963845418	0.0707639648756213	0.5494432682159047	1.7107546715952118	0.10753166035104247	0.3328849009785089	1.7053769642095764	0.04627851050999691	0.3926498945069256	1.7413330681909664	0.08196822023739879	0.6061094730384398	1.7867499672284288	0.20541368921379877	0.5074568898578365	0.29744615608358255	0.20765762444948688	0.48345020705214625	0.03364449674012765	0.19660633218882836	0.3935784570226629	0.1767438073177023	0.3510640514981214	0.512100602656465	0.3853523049355324	0.3935128584459088	0.41056268375194604	0.6188071222641511	0.2568658063486759	0.2664098422576466	0.7366845656712832	0.21650846746376726	0.2512017117347167	0.8228281830500457	0.20567928153488652	0.2428067282891029	0.8254127153470852	0.21371201848036298	0.22410336940150308	0.8226641861018541	0.04182923769336256	0.4977877949046694	0.3717615450619076	0.021603202212080754	0.4323485527127001	0.6053171717177421	0.14345224313063606	0.2485298993465051	0.7323079173554976	0.2512238146508329	0.2525535256986883	0.7796581316026167	0.24956987064584296	0.24368939635917697	0.8030763774522254	0.2042642436492797	0.2008338265156298	0.8250862070542404
2	0.0350877192982456	0.29742305244461575	0.5637975386406038	0.895863019722799	0.28611519707107597	0.5577749382022816	1.306876424990656	0.2786583330634101	0.6031023510301471	1.73969229621974	0.2765614941187688	0.384712582375067	1.7330661848238098	0.3446788556015513	0.39779334422018825	1.7195920711705395	0.24735645586509603	0.6596641221885209	1.7979420539332576	0.07322902275996163	0.5316817601644406	0.8950146889043216	0.08055522763581585	0.5477865408988689	1.2988276988695038	0.07144464736443273	0.5497548777797553	1.7111379974013774	0.1075175140049829	0.33296289897087966	1.7054832729780676	0.046239841134494614	0.3927562182787434	1.7415087971017438	0.08402591726953396	0.6022081963199909	1.785618296163511	0.2053907493563551	0.5075915639374194	0.29750198988984883	0.20762327142761028	0.483638568146445	0.03241056339664662	0.19650993040763887	0.39340535877192573	0.17672565986750524	0.35350008322531323	0.5169568000454672	0.3861404619910361	0.39461944619917577	0.41593947339827503	0.6227312924683075	0.25888968312915195	0.2692000021485055	0.7380653111469409	0.21243870597732079	0.2467885517899338	0.8227754667200946	0.20080640623601032	0.2436650303110284	0.827414830397476	0.2160900370770336	0.22726681551760408	0.823685185170875	0.04191911214646199	0.49759644275291687	0.37304950070224135	0.0217001483069527	0.43275235372706117	0.6048971317476136	0.14446869821197744	0.24992366377861105	0.7327642732177493	0.25134991572260973	0.2525160602158875	0.7820912002412932	0.24850442350050672	0.23934124430508463	0.8039145474922593	0.20224571641025735	0.20648831833959191	0.826855620457047
3	0.0526315789473684	0.2980459564378802	0.5654501467160855	0.8967364499935305	0.2861205509605849	0.5577267229207391	1.3068799099563793	0.2788639315229901	0.6052818321976283	1.7394835589730844	0.2771244792662093	0.3870640083797686	1.7350078442558499	0.3451393381692797	0.399968881628338	1.7216085647371384	0.2477376669093447	0.6599854751831118	1.7981541192197161	0.07358042553456784	0.531968750277663	0.8945866093354992	0.08153630656189231	0.5483872839333092	1.299106932289258	0.07178496644879236	0.5498491698603755	1.7103835794575155	0.1074999556220195	0.33300428444909574	1.7055856389205835	0.04611775312903413	0.3927982357682882	1.7416253124769208	0.08519256677208419	0.5978006146259229	1.7831506195436075	0.2053151906496911	0.5076457756941779	0.2975333563602089	0.2076488896183875	0.4836997945258091	0.032117416974175965	0.1965178929873295	0.3933965891440504	0.17670904974685286	0.35517183433966587	0.5201500238418327	0.38702274369446515	0.39397919452538255	0.4215564599902321	0.6264542741479429	0.2601716419431646	0.27301943132473927	0.7402216984724074	0.20911277423241376	0.24096033649264423	0.8216647235603339	0.1982910648463308	0.2423375584222445	0.828637142015821	0.21717537684447444	0.23605939223661088	0.8271813087662548	0.04222889239416722	0.4993381921211	0.37365830180637555	0.022109224495028196	0.43322989768362064	0.6053483570963273	0.1463073411350377	0.25342097125290797	0.7338247320789447	0.25151480223657496	0.2527308768385331	0.7834344930710047	0.24828059077764766	0.2377054742458629	0.805425750822605	0.20095138826011713	0.21343999768740748	0.8289484553262627
4	0.0701754385964912	0.29981839884289896	0.5657426600261568	0.8963813104854574	0.2861213066128668	0.5576520162290348	1.3067721767998417	0.27838762978702924	0.6068362954190052	1.7382413590062842	0.27731517832326996	0.3878690752174456	1.7357099936990907	0.34514219382286776	0.4007471156931354	1.7225853738327161	0.24786940484041411	0.6611384062394952	1.798919150197802	0.07476406683589908	0.5323214836105047	0.8935143921089335	0.08297347729092557	0.5493826621407986	1.299314470004974	0.07184741981124708	0.5498861044442642	1.7097088230858635	0.10748586345674753	0.3330017469113286	1.7056193053976705	0.04604828769763349	0.3927789730311583	1.7416276918524345	0.08508822899380127	0.5944433955759933	1.7805856760497563	0.2053100359394186	0.5076893758334994	0.29755160908688705	0.207689125905674	0.4836504200164223	0.03222572244535648	0.19678740600051436	0.39438925756192983	0.1767958870918017	0.35575654566668846	0.5209522467256688	0.38813630220629164	0.3926956890468973	0.4239148899629388	0.629335369634276	0.2608791297669456	0.2759868455924838	0.7427196732376863	0.20679780396380187	0.23371769259237604	0.8198909933187764	0.19717734708500637	0.24021368285926809	0.8294349558128158	0.2177240046027456	0.24473711987738234	0.8312544861126738	0.042394113215435056	0.500531896291908	0.37373644843238674	0.023026712572723373	0.4338218853467921	0.6064265702035778	0.14844782873880238	0.25790044395135125	0.7351729184075088	0.2520135127469963	0.253159964147284	0.7840328445182866	0.24881989001172447	0.23745701742384062	0.8071602091376686	0.19996417007046538	0.22118943343702666	0.8317232763784913
5	0.087719298245614	0.3013175911413776	0.5656982660781991	0.895557762278751	0.28612962165743966	0.5575993656118199	1.3065929578022801	0.27757707122037684	0.6071903014544273	1.7368637356436472	0.2773264543249955	0.3878971940420923	1.7358004081360279	0.34504840225150085	0.4005544112718049	1.7231108824025998	0.24843710854809764	0.6645812747856458	1.8011087121149285	0.07634564250561066	0.5326925019710191	0.8929345874325012	0.08403784827243797	0.5503452638853298	1.2994209313258385	0.07179477819576657	0.5499126693950604	1.7095992497860202	0.10748196002452971	0.3329798368790768	1.7056077071944198	0.046385060788974974	0.3927434240229813	1.7415556297223391	0.08328467280875168	0.5960326307856738	1.7802920221211838	0.20567020569496375	0.5078949710734573	0.29757316021873903	0.20769567013451207	0.4834640554702926	0.03234171369840477	0.19742115990985942	0.39712090938173505	0.1770717006803304	0.3556842426951629	0.5203436563620425	0.3893688669293925	0.3918207960847114	0.42317068180902656	0.6308573293839004	0.2612220310292964	0.2771424254441388	0.7451588615105553	0.20525613240585633	0.22777297159173157	0.8193402646987642	0.19659983580516655	0.2389095858124097	0.8308226282049468	0.2180805655490406	0.24926979633053414	0.8340857941858275	0.04233992190566819	0.5005464967697205	0.37360640863288586	0.02419434769335274	0.4344193195243833	0.6078073424515754	0.15041526618571247	0.2613519615582802	0.7362057003258414	0.2531040523053161	0.2537793557906022	0.7844897961275612	0.25009737370249346	0.23748958644773396	0.810094201823726	0.19934014993289476	0.2266777905185835	0.8343222426149104
